<svg xmlns="http://www.w3.org/2000/svg" width="390" height="880" viewBox="0 0 390 880">
  <defs>
    <linearGradient id="bg" x1="0" x2="1" y1="0" y2="1"><stop offset="0" stop-color="#f8fafc"/><stop offset="1" stop-color="#eef2ff"/></linearGradient>
    <filter id="shadow" x="-20%" y="-20%" width="140%" height="140%"><feDropShadow dx="0" dy="12" stdDeviation="16" flood-color="#0f172a" flood-opacity="0.14"/></filter>
  </defs>
  <rect width="390" height="880" rx="36" fill="url(#bg)"/>
  <rect x="0" y="0" width="390" height="88" rx="28" fill="#ffffff" filter="url(#shadow)"/>
  <text x="24" y="54" font-family="Inter, Arial, sans-serif" font-size="24" font-weight="800" fill="#0f172a">Trace watermark</text>
  <rect x="22" y="112" width="346" height="210" rx="24" fill="#ffffff" filter="url(#shadow)"/>
  <text x="44" y="148" font-family="Inter, Arial, sans-serif" font-size="15" font-weight="700" fill="#334155">Enter the code shown in a leaked screenshot</text>
  <text x="44" y="174" font-family="Inter, Arial, sans-serif" font-size="13" fill="#64748b">Find out who opened the file, when, and</text>
  <text x="44" y="194" font-family="Inter, Arial, sans-serif" font-size="13" fill="#64748b">on which device.</text>
  <rect x="44" y="218" width="302" height="48" rx="12" fill="#f8fafc" stroke="#cbd5e1"/>
  <text x="60" y="248" font-family="Inter, Arial, sans-serif" font-size="16" font-weight="800" letter-spacing="2" fill="#0f172a">KQPZMWH</text>
  <rect x="44" y="282" width="302" height="48" rx="14" fill="#7c3aed"/>
  <text x="170" y="313" text-anchor="middle" font-family="Inter, Arial, sans-serif" font-size="15" font-weight="800" fill="#ffffff">🔎 Trace</text>
  <rect x="22" y="348" width="346" height="288" rx="24" fill="#ffffff" filter="url(#shadow)"/>
  <text x="44" y="386" font-family="Inter, Arial, sans-serif" font-size="17" font-weight="800" fill="#047857">Found 1 matching open record</text>
  <rect x="44" y="412" width="302" height="78" rx="16" fill="#ecfdf5" stroke="#bbf7d0"/>
  <text x="62" y="440" font-family="Inter, Arial, sans-serif" font-size="14" font-weight="800" fill="#065f46">Reader</text>
  <text x="62" y="466" font-family="Inter, Arial, sans-serif" font-size="15" fill="#0f172a">jane.client@example.com</text>
  <rect x="44" y="506" width="302" height="78" rx="16" fill="#f8fafc" stroke="#e2e8f0"/>
  <text x="62" y="534" font-family="Inter, Arial, sans-serif" font-size="14" font-weight="800" fill="#475569">Opened at</text>
  <text x="62" y="560" font-family="Inter, Arial, sans-serif" font-size="15" fill="#0f172a">2026-07-09 08:42</text>
  <rect x="44" y="600" width="302" height="20" rx="10" fill="#ede9fe"/>
  <text x="62" y="614" font-family="Inter, Arial, sans-serif" font-size="11" font-weight="700" fill="#6d28d9">Dynamic watermark trace</text>
  <rect x="22" y="662" width="346" height="148" rx="24" fill="#0f172a" filter="url(#shadow)"/>
  <text x="44" y="704" font-family="Inter, Arial, sans-serif" font-size="18" font-weight="850" fill="#ffffff">When screenshots leak, trace them.</text>
  <text x="44" y="736" font-family="Inter, Arial, sans-serif" font-size="13" fill="#cbd5e1">MaiPDF watermark codes connect a leaked</text>
  <text x="44" y="756" font-family="Inter, Arial, sans-serif" font-size="13" fill="#cbd5e1">screenshot back to a reader and license.</text>
</svg>
