<svg xmlns="http://www.w3.org/2000/svg" viewBox="0 0 800 400" font-family="Arial, 'Microsoft YaHei', sans-serif">
  <defs>
    <linearGradient id="headerGrad" x1="0%" y1="0%" x2="100%" y2="0%">
      <stop offset="0%" style="stop-color:#1a73e8"/>
      <stop offset="100%" style="stop-color:#7c3aed"/>
    </linearGradient>
    <linearGradient id="pdfGrad" x1="0%" y1="0%" x2="0%" y2="100%">
      <stop offset="0%" style="stop-color:#ef4444"/>
      <stop offset="100%" style="stop-color:#dc2626"/>
    </linearGradient>
    <filter id="shadow">
      <feDropShadow dx="0" dy="4" stdDeviation="6" flood-opacity="0.15"/>
    </filter>
  </defs>

  <!-- Background -->
  <rect width="800" height="400" fill="#f8fafc"/>
  
  <!-- Header -->
  <rect x="0" y="0" width="800" height="45" fill="url(#headerGrad)"/>
  <text x="400" y="28" font-size="16" font-weight="bold" text-anchor="middle" fill="white">📄 PDF → 🔗 安全链接 → 📱 二维码</text>

  <!-- Step 1: Upload PDF -->
  <g transform="translate(50, 80)">
    <rect width="200" height="260" rx="12" fill="white" stroke="#e2e8f0" stroke-width="2" filter="url(#shadow)"/>
    <rect width="200" height="40" rx="12" fill="url(#pdfGrad)"/>
    <rect x="0" y="28" width="200" height="12" fill="url(#pdfGrad)"/>
    <text x="100" y="27" font-size="12" font-weight="bold" text-anchor="middle" fill="white">1. 上传 PDF</text>
    
    <!-- PDF Icon animated -->
    <g transform="translate(60, 70)">
      <rect width="80" height="100" rx="5" fill="#ef4444" opacity="0.1" stroke="#ef4444" stroke-width="2"/>
      <rect x="5" y="5" width="50" height="10" rx="2" fill="#ef4444"/>
      <rect x="5" y="20" width="60" height="6" rx="2" fill="#fca5a5"/>
      <rect x="5" y="30" width="55" height="6" rx="2" fill="#fca5a5"/>
      <rect x="5" y="40" width="65" height="6" rx="2" fill="#fca5a5"/>
      <text x="40" y="75" font-size="18" text-anchor="middle" fill="#dc2626" font-weight="bold">PDF</text>
      
      <!-- Upload animation -->
      <g>
        <path d="M 40 85 L 40 95" stroke="#1a73e8" stroke-width="3" stroke-linecap="round">
          <animate attributeName="d" values="M 40 95 L 40 95;M 40 85 L 40 95;M 40 95 L 40 95" dur="1.5s" repeatCount="indefinite"/>
        </path>
        <path d="M 35 90 L 40 85 L 45 90" fill="none" stroke="#1a73e8" stroke-width="3" stroke-linecap="round">
          <animate attributeName="opacity" values="0;1;1;0" dur="1.5s" repeatCount="indefinite"/>
        </path>
      </g>
    </g>
    
    <text x="100" y="200" font-size="10" text-anchor="middle" fill="#6b7280">拖拽或点击上传</text>
    <text x="100" y="220" font-size="10" text-anchor="middle" fill="#6b7280">最大 100MB • 免费</text>
    <rect x="30" y="230" width="140" height="25" rx="5" fill="#1a73e8"/>
    <text x="100" y="247" font-size="10" text-anchor="middle" fill="white" font-weight="bold">上传 PDF</text>
  </g>

  <!-- Arrow 1 -->
  <g transform="translate(260, 180)">
    <path d="M 0 30 L 40 30" stroke="#10b981" stroke-width="3">
      <animate attributeName="stroke-dashoffset" values="0;-20" dur="1s" repeatCount="indefinite"/>
    </path>
    <polygon points="40,22 55,30 40,38" fill="#10b981">
      <animate attributeName="opacity" values="0.5;1;0.5" dur="1s" repeatCount="indefinite"/>
    </polygon>
  </g>

  <!-- Step 2: Set Security -->
  <g transform="translate(300, 80)">
    <rect width="200" height="260" rx="12" fill="white" stroke="#e2e8f0" stroke-width="2" filter="url(#shadow)"/>
    <rect width="200" height="40" rx="12" fill="#10b981"/>
    <rect x="0" y="28" width="200" height="12" fill="#10b981"/>
    <text x="100" y="27" font-size="12" font-weight="bold" text-anchor="middle" fill="white">2. 设置安全选项</text>
    
    <!-- Security Options -->
    <g transform="translate(15, 55)">
      <rect width="170" height="30" rx="5" fill="#dcfce7" stroke="#10b981" stroke-width="1"/>
      <text x="85" y="20" font-size="10" text-anchor="middle" fill="#065f46">👁️ 浏览次数限制: 5次</text>
    </g>
    <g transform="translate(15, 95)">
      <rect width="170" height="30" rx="5" fill="#dcfce7" stroke="#10b981" stroke-width="1"/>
      <text x="85" y="20" font-size="10" text-anchor="middle" fill="#065f46">🔐 邮箱验证</text>
    </g>
    <g transform="translate(15, 135)">
      <rect width="170" height="30" rx="5" fill="#dcfce7" stroke="#10b981" stroke-width="1"/>
      <text x="85" y="20" font-size="10" text-anchor="middle" fill="#065f46">🚫 禁止下载</text>
    </g>
    <g transform="translate(15, 175)">
      <rect width="170" height="30" rx="5" fill="#dcfce7" stroke="#10b981" stroke-width="1"/>
      <text x="85" y="20" font-size="10" text-anchor="middle" fill="#065f46">💧 动态水印</text>
    </g>
    <g transform="translate(15, 215)">
      <rect width="170" height="30" rx="5" fill="#dcfce7" stroke="#10b981" stroke-width="1"/>
      <text x="85" y="20" font-size="10" text-anchor="middle" fill="#065f46">📧 访问提醒邮件</text>
    </g>
  </g>

  <!-- Arrow 2 -->
  <g transform="translate(510, 180)">
    <path d="M 0 30 L 40 30" stroke="#7c3aed" stroke-width="3">
      <animate attributeName="stroke-dashoffset" values="0;-20" dur="1s" repeatCount="indefinite"/>
    </path>
    <polygon points="40,22 55,30 40,38" fill="#7c3aed">
      <animate attributeName="opacity" values="0.5;1;0.5" dur="1s" repeatCount="indefinite"/>
    </polygon>
  </g>

  <!-- Step 3: Share -->
  <g transform="translate(550, 80)">
    <rect width="200" height="260" rx="12" fill="white" stroke="#e2e8f0" stroke-width="2" filter="url(#shadow)"/>
    <rect width="200" height="40" rx="12" fill="#7c3aed"/>
    <rect x="0" y="28" width="200" height="12" fill="#7c3aed"/>
    <text x="100" y="27" font-size="12" font-weight="bold" text-anchor="middle" fill="white">3. 安全分享</text>
    
    <!-- Link -->
    <g transform="translate(15, 60)">
      <rect width="170" height="35" rx="5" fill="#f3e8ff" stroke="#7c3aed" stroke-width="1"/>
      <text x="85" y="15" font-size="9" text-anchor="middle" fill="#7c3aed">🔗 安全链接</text>
      <text x="85" y="28" font-size="8" text-anchor="middle" fill="#9ca3af">maipdf.com/pdf/abc123</text>
    </g>
    
    <!-- QR Code -->
    <g transform="translate(50, 110)">
      <rect width="100" height="100" rx="5" fill="white" stroke="#7c3aed" stroke-width="2"/>
      <!-- Simplified QR pattern -->
      <rect x="10" y="10" width="20" height="20" fill="#1f2937"/>
      <rect x="70" y="10" width="20" height="20" fill="#1f2937"/>
      <rect x="10" y="70" width="20" height="20" fill="#1f2937"/>
      <rect x="40" y="40" width="20" height="20" fill="#1f2937"/>
      <rect x="35" y="15" width="10" height="10" fill="#1f2937"/>
      <rect x="55" y="35" width="10" height="10" fill="#1f2937"/>
      <rect x="15" y="45" width="10" height="10" fill="#1f2937"/>
      <rect x="75" y="55" width="10" height="10" fill="#1f2937"/>
      
      <!-- Scan animation -->
      <rect x="5" y="5" width="90" height="3" fill="#1a73e8" opacity="0.7">
        <animate attributeName="y" values="5;92;5" dur="2s" repeatCount="indefinite"/>
      </rect>
    </g>
    
    <text x="100" y="230" font-size="10" text-anchor="middle" fill="#6b7280">📱 扫码查看</text>
    <rect x="30" y="240" width="140" height="25" rx="5" fill="#7c3aed"/>
    <text x="100" y="257" font-size="10" text-anchor="middle" fill="white" font-weight="bold">复制链接</text>
  </g>

  <!-- Bottom Info -->
  <rect x="100" y="355" width="600" height="35" rx="8" fill="url(#headerGrad)" filter="url(#shadow)"/>
  <text x="400" y="378" font-size="12" font-weight="bold" text-anchor="middle" fill="white">🚀 免费 • 无需注册 • 即时分享 • 完全控制</text>

  <!-- Branding -->
  <text x="780" y="395" font-size="9" text-anchor="end" fill="#94a3b8">MaiPDF • sendpdfonline.com</text>
</svg>
